# xmcd
#
# Track frame offsets:
#	150
#	14253
#	31281
#	44886
#	62890
#	76918
#	94622
#	109401
#	127179
#	143833
#	158686
#	172415
#	187793
#	201296
#	217724
#	230702
#	245630
#	260934
#	279388
#
# Disc length: 3995 seconds
#
# Revision: 2
# Processed by: cddbd v1.5.2PL0 Copyright (c) Steve Scherf et al.
# Submitted via: audiograbber 1.83.01
#
DISCID=1e0f9913
DTITLE=Various Arists - Promo Only Country Radio August 2009
DYEAR=2009
DGENRE=Country
TTITLE0=Trailor Choir - Rockin' The Beer Gut
TTITLE1=Montgomery Gentry - Long Line Of Losers
TTITLE2=Craig Morgan - Bonfire
TTITLE3=Brooks and Dunn - Indian Summer
TTITLE4=Jake Owen - Eight Second Ride (Album Version)
TTITLE5=Dean Brody - Gravity
TTITLE6=Steve Holy - Baby Don't Go
TTITLE7=Jason Michael Carroll - Hurry Home
TTITLE8=The Lost Trailors - All This Love
TTITLE9=Sara Evans - Feels Just Like A Love Song
TTITLE10=Hoyt Hughes - Ain't My Day To Save The World
TTITLE11=Darren Kozelsky - Seven Vern Gosdins Ago
TTITLE12=Christopher Michael Johnson - The Day We Changed The Rules
TTITLE13=John Rich - The Good Lord And The Man (Album Version)
TTITLE14=Easton Corbin - A Little More Country Than That
TTITLE15=Kenny Chesney - Out Last Night (Album Version)
TTITLE16=Sarah Jarosz - Left Home (Album Version)
TTITLE17=Marshall Crenshaw - Live And Learn
TTITLE18=Levon Helm - When I Go Away (Album Version)
EXTD=
EXTT0=
EXTT1=
EXTT2=
EXTT3=
EXTT4=
EXTT5=
EXTT6=
EXTT7=
EXTT8=
EXTT9=
EXTT10=
EXTT11=
EXTT12=
EXTT13=
EXTT14=
EXTT15=
EXTT16=
EXTT17=
EXTT18=
PLAYORDER=
